<svg xmlns="http://www.w3.org/2000/svg" xmlns:xlink="http://www.w3.org/1999/xlink" viewBox="0 0 1024 1024"><defs><style>.cls-1{fill:url(#linear-gradient);}.cls-2{fill:url(#linear-gradient-2);}.cls-3{fill:url(#linear-gradient-3);}.cls-4{fill:url(#linear-gradient-4);}.cls-5{fill:url(#linear-gradient-5);}.cls-6{opacity:0.48;fill:url(#linear-gradient-6);}.cls-7{fill:url(#linear-gradient-7);}.cls-8{fill:url(#linear-gradient-8);}.cls-9{fill:url(#linear-gradient-9);}</style><linearGradient id="linear-gradient" x1="74.78" y1="123.67" x2="937.22" y2="123.67" gradientUnits="userSpaceOnUse"><stop offset="0.51" stop-color="#58e0ca"/><stop offset="0.95" stop-color="#92ffa4"/></linearGradient><linearGradient id="linear-gradient-2" x1="521.8" y1="342.06" x2="949.2" y2="525.47" gradientUnits="userSpaceOnUse"><stop offset="0" stop-color="#fa71c0"/><stop offset="1" stop-color="#ffe3c7"/></linearGradient><linearGradient id="linear-gradient-3" x1="119.96" y1="255.16" x2="595.93" y2="833.87" gradientUnits="userSpaceOnUse"><stop offset="0" stop-color="#8cfaab"/><stop offset="1" stop-color="#00b4ff"/></linearGradient><linearGradient id="linear-gradient-4" x1="899.26" y1="262.14" x2="538.3" y2="843.4" gradientUnits="userSpaceOnUse"><stop offset="0" stop-color="#eb9bdd"/><stop offset="1" stop-color="#3f6bfe"/></linearGradient><linearGradient id="linear-gradient-5" x1="499.77" y1="673.26" x2="590.88" y2="713.29" gradientUnits="userSpaceOnUse"><stop offset="0" stop-color="#13bdf6"/><stop offset="0.61" stop-color="#5070fb"/></linearGradient><linearGradient id="linear-gradient-6" x1="692.82" y1="358.05" x2="765.04" y2="397.99" gradientUnits="userSpaceOnUse"><stop offset="0" stop-color="#ffb1c5"/><stop offset="1" stop-color="#ffc2c4"/></linearGradient><linearGradient id="linear-gradient-7" x1="74.78" y1="139.09" x2="937.22" y2="139.09" gradientUnits="userSpaceOnUse"><stop offset="0" stop-color="#7c9cfe"/><stop offset="0.96" stop-color="#c59ef9"/></linearGradient><linearGradient id="linear-gradient-8" x1="399.9" y1="138.73" x2="937.23" y2="138.73" gradientUnits="userSpaceOnUse"><stop offset="0" stop-color="#018bfe"/><stop offset="0.7" stop-color="#42d3d0"/></linearGradient><linearGradient id="linear-gradient-9" x1="389.77" y1="273.06" x2="871.62" y2="392.25" gradientUnits="userSpaceOnUse"><stop offset="0" stop-color="#fb80d3"/><stop offset="0.87" stop-color="#ffdec4"/></linearGradient></defs><title>Artboard 1</title><g id="Layer_1" data-name="Layer 1"><polygon class="cls-1" points="74.78 191.4 937.22 191.4 846.91 55.94 151.54 55.94 74.78 191.4"/><polygon class="cls-2" points="364.17 241.07 617.03 615.86 675.73 502.97 576.39 353.96 757.01 358.48 829.25 241.07 364.17 241.07"/></g><g id="Layer_3" data-name="Layer 3"><path class="cls-3" d="M612,850.41l61.15-114.1c-46,86.24-133.38,6.58-133.38,6.58h0l-325-483.75h-140L510.05,910h0L548.9,968v0h0l21.86-40.59,37.49-69.63,3.86-7.18-.14-.21Z"/></g><g id="Layer_2" data-name="Layer 2"><path class="cls-4" d="M937.22,241.07H824.34L539.72,742.89s-44,90.32,9.18,225.17l63.21-117.4,228.2-427.87a230.31,230.31,0,0,0,12.47-23.39Z"/><path class="cls-5" d="M487.5,665.15s59.63,59,99.51-5.64l-47.29,83.38Z"/><path class="cls-6" d="M725.25,415.79s9.85-37-46.5-60.29l80.86-.32Z"/><path class="cls-7" d="M74.78,191.4S161.86,86.77,357.15,86.77,656.73,191.4,937.22,191.4Z"/><path class="cls-8" d="M937.23,191.4h0c-253.86,0-374.05-87.64-537.33-103.91,16.59-1.72,87.68-2.1,106.1,0C714.33,111.21,656.74,191.4,937.23,191.4Z"/><path class="cls-9" d="M824.34,241.07H364.17C450.62,368.9,576.39,354,576.39,354L757,358.48c79.72,37.83,53.13,117.27,35.61,153.72l48.85-91.31S924.13,290.74,824.34,241.07Z"/></g></svg>