<svg xmlns="http://www.w3.org/2000/svg" viewBox="0 0 1024.94 1024.94"><defs><style>.cls-1{fill:#e6e6e6;}.cls-2{fill:#b3b3b3;stroke:#b3b3b3;stroke-miterlimit:10;}.cls-3{fill:#ccc;}</style></defs><title>Artboard 2</title><g id="Layer_1" data-name="Layer 1"><polygon class="cls-1" points="78.75 191.4 941.2 191.4 850.89 55.94 155.51 55.94 78.75 191.4"/><polygon class="cls-2" points="368.14 241.07 621 615.86 679.71 502.97 580.37 353.96 760.98 358.48 833.23 241.07 368.14 241.07"/></g><g id="Layer_3" data-name="Layer 3"><path class="cls-3" d="M615.93,850.41l61.14-114.1c-46,86.24-133.37,6.58-133.37,6.58h0l-325-483.75h-140L514,910h0L552.87,968v0h0l21.85-40.59,37.5-69.63,3.86-7.18-.14-.21Z"/></g><g id="Layer_2" data-name="Layer 2"><path class="cls-1" d="M941.2,241.07H828.31L543.7,742.89s-44,90.32,9.17,225.17l63.22-117.4L844.28,422.79a231.39,231.39,0,0,0,12.48-23.39Z"/><path class="cls-3" d="M491.47,665.15s59.63,59,99.52-5.64L543.7,742.89Z"/><path class="cls-1" d="M729.22,415.79s9.85-37-46.5-60.29l80.86-.32Z"/><path class="cls-3" d="M78.75,191.4S165.84,86.77,361.12,86.77,660.71,191.4,941.2,191.4Z"/><path class="cls-2" d="M941.21,191.4h0c-253.87,0-374.05-87.64-537.34-103.91,16.6-1.72,87.69-2.1,106.1,0C718.31,111.21,660.71,191.4,941.21,191.4Z"/><path class="cls-3" d="M828.31,241.07H368.14C454.6,368.9,580.37,354,580.37,354L761,358.48c79.73,37.83,53.14,117.27,35.62,153.72l48.84-91.31S928.11,290.74,828.31,241.07Z"/></g></svg>